<?xml version="1.0" standalone="no"?>
<!DOCTYPE svg PUBLIC "-//W3C//DTD SVG 20010904//EN"
 "http://www.w3.org/TR/2001/REC-SVG-20010904/DTD/svg10.dtd">
<svg version="1.0" xmlns="http://www.w3.org/2000/svg"
 width="120.000000pt" height="120.000000pt" viewBox="0 0 120.000000 120.000000"
 preserveAspectRatio="xMidYMid meet">
<metadata>
Created by potrace 1.11, written by Peter Selinger 2001-2013
</metadata>
<g transform="translate(0.000000,120.000000) scale(0.100000,-0.100000)"
fill="#000000" stroke="none">
<path d="M485 1169 c-27 -6 -84 -26 -125 -46 -92 -44 -192 -141 -233 -225
-109 -227 -13 -502 215 -617 127 -63 186 -140 176 -225 -2 -20 -1 -36 2 -36
29 0 171 45 221 70 192 95 328 248 373 420 20 76 14 228 -12 300 -59 164 -173
281 -331 341 -65 24 -209 34 -286 18z m200 -206 c-4 -56 -14 -153 -20 -203 -2
-19 -7 -71 -10 -115 -4 -44 -9 -91 -11 -105 -2 -14 -7 -60 -10 -103 -3 -44 -8
-86 -9 -95 -2 -10 -4 -28 -4 -42 -1 -21 -3 -22 -15 -10 -15 16 -26 73 -76 410
-12 80 -25 165 -30 188 -8 44 -8 44 29 59 75 33 146 61 153 62 4 1 5 -20 3
-46z m185 -163 c47 -52 95 -106 107 -119 12 -14 21 -26 19 -28 -1 -2 -22 4
-46 12 -55 20 -57 19 -72 -10 -7 -14 -40 -67 -73 -119 -44 -70 -66 -96 -85
-100 -14 -2 -33 -8 -42 -11 -13 -5 -16 -2 -14 12 2 10 7 41 10 68 4 28 15 104
26 170 10 66 22 140 25 165 3 25 8 58 11 74 l6 28 22 -24 c11 -13 59 -66 106
-118z m-420 -72 c22 -54 102 -319 97 -324 -6 -6 -317 235 -317 246 0 6 187 98
203 99 4 1 12 -9 17 -21z"/>
</g>
</svg>
